<?xml version="1.0" encoding="UTF-8" standalone="no"?>
<svg
   xmlns:dc="http://purl.org/dc/elements/1.1/"
   xmlns:cc="http://creativecommons.org/ns#"
   xmlns:rdf="http://www.w3.org/1999/02/22-rdf-syntax-ns#"
   xmlns:svg="http://www.w3.org/2000/svg"
   xmlns="http://www.w3.org/2000/svg"
   xmlns:xlink="http://www.w3.org/1999/xlink"
   xmlns:sodipodi="http://sodipodi.sourceforge.net/DTD/sodipodi-0.dtd"
   xmlns:inkscape="http://www.inkscape.org/namespaces/inkscape"
   version="1.1"
   id="Capa_1"
   x="0px"
   y="0px"
   viewBox="0 0 512 512"
   style="enable-background:new 0 0 512 512;"
   xml:space="preserve"
   sodipodi:docname="awesome-readme.svg"
   inkscape:version="1.0.1 (c497b03c, 2020-09-10)"><metadata
   id="metadata75"><rdf:RDF><cc:Work
       rdf:about=""><dc:format>image/svg+xml</dc:format><dc:type
         rdf:resource="http://purl.org/dc/dcmitype/StillImage" /><dc:title></dc:title></cc:Work></rdf:RDF></metadata><defs
   id="defs73"><linearGradient
     id="a"
     gradientUnits="userSpaceOnUse"
     x1="243.04401"
     x2="243.04401"
     y1="0"
     y2="512"
     gradientTransform="matrix(1.3333334,0,0,1.3333334,-0.6666667,0)"><stop
       offset="0"
       stop-color="#2af598"
       id="stop405" /><stop
       offset="1"
       stop-color="#009efd"
       id="stop407" /></linearGradient><linearGradient
     inkscape:collect="always"
     xlink:href="#a"
     id="linearGradient444"
     gradientUnits="userSpaceOnUse"
     gradientTransform="matrix(0.46989256,0,0,0.46989256,159.59333,105.32036)"
     x1="243.04401"
     y1="0"
     x2="243.04401"
     y2="512" /></defs><sodipodi:namedview
   pagecolor="#ffffff"
   bordercolor="#666666"
   borderopacity="1"
   objecttolerance="10"
   gridtolerance="10"
   guidetolerance="10"
   inkscape:pageopacity="0"
   inkscape:pageshadow="2"
   inkscape:window-width="1379"
   inkscape:window-height="917"
   id="namedview71"
   showgrid="false"
   inkscape:zoom="0.3754849"
   inkscape:cx="202.85155"
   inkscape:cy="95.51293"
   inkscape:window-x="1311"
   inkscape:window-y="230"
   inkscape:window-maximized="0"
   inkscape:current-layer="g108" />

























<path
   d="M 197.41964,236.42041 H 313.01328 V 255.2161 H 197.41964 Z m 0,54.97743 H 313.01328 V 272.60211 H 197.41964 Z m 190.34875,-76.1226 v 102.44759 c -0.009,14.91174 -11.66837,27.15098 -26.35623,28.12013 v 0.0624 h -173.3903 c -15.54687,0 -28.19358,-12.64672 -28.19358,-28.19355 v -184.1979 c 0,-15.54681 12.64671,-28.19355 28.19358,-28.19355 h 134.38921 c 15.54687,0 28.19357,12.64674 28.19357,28.19355 v 53.56774 h 8.97018 c 15.545,0 28.19357,12.64675 28.19357,28.19359 z m -54.34971,111.83442 c -1.04256,-2.94049 -1.60972,-6.10494 -1.60972,-9.39786 V 133.51391 c 0,-5.18166 -4.21622,-9.39783 -9.39789,-9.39783 H 188.02186 c -5.18173,0 -9.3979,4.21617 -9.3979,9.39783 V 317.7118 c 0,5.18169 4.21617,9.39786 9.3979,9.39786 z m 35.55397,-111.83442 c 0,-5.18169 -4.21616,-9.39786 -9.39783,-9.39786 h -8.97018 V 317.7118 c 0,5.10274 4.08953,9.26936 9.1629,9.39419 5.09358,-0.12483 9.20145,-4.28778 9.20511,-9.38866 z m -96.37017,3.75912 h 40.4108 v -18.79569 h -40.4108 z m 0,-37.59142 h 40.4108 v -18.79569 h -40.4108 z m -18.79574,37.59142 h -56.3871 v -56.38711 h 56.3871 z m -18.79568,-37.59142 h -18.79568 v 18.79573 h 18.79568 z m 0,0"
   fill="url(#a)"
   id="path410"
   style="fill:url(#linearGradient444);stroke-width:0.469891" /><g
   id="g108"
   style="display:inline"
   transform="translate(6.9403527,6.9403527)"><path
     id="SVGCleanerId_0"
     style="fill:#1b2736"
     d="M 0,253.219 74.717,89.132 c 2.95,-6.477 11.588,-7.776 16.311,-2.452 l 28.254,31.849 c 1.857,2.093 2.881,4.792 2.881,7.59 v 0 c 0,5.826 -6.776,9.029 -11.278,5.331 L 93.39,117.079 c -2.283,-1.875 -5.726,-1.045 -6.904,1.664 L 20.382,270.822 Z" /><g
     id="g12">
	<path
   id="SVGCleanerId_0_1_"
   style="fill:#1b2736"
   d="M 0,253.219 74.717,89.132 c 2.95,-6.477 11.588,-7.776 16.311,-2.452 l 28.254,31.849 c 1.857,2.093 2.881,4.792 2.881,7.59 v 0 c 0,5.826 -6.776,9.029 -11.278,5.331 L 93.39,117.079 c -2.283,-1.875 -5.726,-1.045 -6.904,1.664 L 20.382,270.822 Z" />
</g><path
     style="fill:#1b2736"
     d="M 512,253.219 437.283,89.132 c -2.95,-6.477 -11.588,-7.776 -16.311,-2.452 l -28.254,31.849 c -1.857,2.093 -2.881,4.792 -2.881,7.59 v 0 c 0,5.826 6.776,9.029 11.278,5.331 l 17.495,-14.371 c 2.283,-1.875 5.726,-1.045 6.904,1.664 l 66.104,152.079 z"
     id="path14" /><g
     id="g20"
     style="display:inline">
	<path
   id="path16"
   style="display:inline;fill:#2d415a"
   d="M 82.726562,237.31055 C 36.295347,237.74923 6.9394531,255.0957 6.9394531,255.0957 v 31.99219 l 12.7988279,23.46094 c 0,0 -1.136937,-0.0374 -0.710937,4.26562 13.507,136.497 59.006922,120.14649 137.919926,120.14649 78.913,0 86.02123,-113.03736 88.86523,-121.56836 2.844,-8.531 17.06445,-11.375 17.06445,-11.375 0,0 14.22241,2.844 17.06641,11.375 2.844,8.531 9.96205,121.56836 88.87305,121.56836 78.911,0 124.42754,16.34951 137.93554,-120.14649 0.426,-4.304 -0.67578,-4.26562 -0.67578,-4.26562 l 12.86328,-23.46094 V 255.0957 c 0,0 -31.34734,-18.48543 -80.40234,-17.77343 -49.053,0.711 -110.97114,-1.42352 -151.49414,29.14648 0,0 -12.79688,7.11145 -24.17188,5.68945 -12.797,1.421 -24.17187,-5.68945 -24.17187,-5.68945 -40.521,-30.569 -102.37178,-28.43448 -151.425782,-29.14648 -1.532907,-0.0222 -3.049094,-0.0259 -4.546876,-0.0117 z m 31.111328,22.51562 c 3.96333,-0.0327 8.14027,0.0461 12.53906,0.2461 0,0 86.73153,-0.71114 97.39453,36.25585 2.475,8.58402 3.6845,20.25658 2.8125,33.01758 -1.039,15.204 -5.08184,31.9415 -13.58984,46.9375 -6.18462,0.795 -12.85042,1.60739 -19.8457,2.39258 6.99521,-0.78512 13.6612,-1.59575 19.8457,-2.39062 -15.108,26.625 -44.28133,47.67907 -95.86133,44.45507 -37.243995,-2.328 -56.849247,-21.80881 -67.031248,-44.00781 -10.554493,-23.0109 -10.977871,-48.89595 -10.375,-61.68359 0,0 0,-0.002 0,-0.002 0.23701,-5.01472 0.626954,-8.05469 0.626954,-8.05469 0,0 -7.103229,-46.50035 73.484374,-47.16602 z m 298.05664,0 c 80.58761,0.66567 73.48438,47.16602 73.48438,47.16602 0,0 0.38994,3.03998 0.62695,8.05469 v 0.002 c 0.60287,12.78764 0.17949,38.67269 -10.375,61.68359 -10.181,22.199 -29.78725,41.67981 -67.03125,44.00781 -51.58,3.224 -80.75333,-17.83007 -95.86133,-44.45507 6.18463,0.79487 12.85042,1.6055 19.8457,2.39062 -6.99528,-0.78519 -13.66107,-1.59758 -19.8457,-2.39258 -8.508,-14.996 -12.55084,-31.7335 -13.58984,-46.9375 -0.872,-12.761 0.3375,-24.43357 2.8125,-33.01758 10.663,-36.96699 97.39453,-36.25585 97.39453,-36.25585 4.3988,-0.2 8.57574,-0.2788 12.53906,-0.2461 z"
   transform="translate(-6.9403527,-6.9403527)" />
	<path
   style="display:none;fill:#2d415a"
   d="m 512,248.156 c 0,0 -31.349,-18.484 -80.402,-17.774 -49.054,0.712 -110.938,-1.422 -151.461,29.147 0,0 -11.392,7.109 -24.189,5.688 -11.375,1.422 -24.181,-5.688 -24.181,-5.688 C 191.244,228.959 129.39,231.093 80.336,230.382 31.284,229.67 0,248.156 0,248.156 v 31.992 l 12.797,23.461 c 0,0 -1.137,-0.038 -0.712,4.266 13.508,136.496 59.007,120.145 137.92,120.145 78.913,0 86.02,-113.037 88.864,-121.568 2.844,-8.531 17.062,-11.374 17.062,-11.374 0,0 14.218,2.843 17.062,11.374 2.844,8.531 9.953,121.568 88.864,121.568 78.911,0 124.412,16.352 137.919,-120.146 0.426,-4.303 -0.643,-4.266 -0.643,-4.266 L 512,280.147 Z"
   id="path18" />
</g><g
     id="g26"
     style="display:inline">
	<ellipse
   style="fill:#ffffff"
   cx="24.834999"
   cy="263.08899"
   rx="16.304001"
   ry="6.3990002"
   id="ellipse22" />
	<ellipse
   style="fill:#ffffff"
   cx="487.03299"
   cy="263.08899"
   rx="16.304001"
   ry="6.3990002"
   id="ellipse24" />
</g><g
     id="g40">
</g><g
     id="g42">
</g><g
     id="g44">
</g><g
     id="g46">
</g><g
     id="g48">
</g><g
     id="g50">
</g><g
     id="g52">
</g><g
     id="g54">
</g><g
     id="g56">
</g><g
     id="g58">
</g><g
     id="g60">
</g><g
     id="g62">
</g><g
     id="g64">
</g><g
     id="g66">
</g><g
     id="g68">
</g><g
     id="g466"
     style="display:inline;opacity:0.75"><path
       style="fill:#ffd161"
       d="m 92.42,322.09 c 25.082,28.8 87.181,14.021 127.224,0.315 0.872,-12.761 -0.338,-24.434 -2.813,-33.018 -10.663,-36.967 -97.395,-36.256 -97.395,-36.256 -93.841,-4.266 -86.022,46.921 -86.022,46.921 0,0 -0.39,3.04 -0.627,8.056 19.924,-5.803 42.58,-5.596 59.633,13.982 z"
       id="path454" /><path
       style="fill:#ffb561"
       d="M 92.42,322.09 C 75.368,302.512 52.71,302.305 32.786,308.107 c -0.603,12.787 -0.18,38.673 10.375,61.685 33.124,13.318 113.416,5.911 162.893,-0.449 8.508,-14.996 12.55,-31.734 13.589,-46.938 -40.042,13.708 -102.14,28.485 -127.223,-0.315 z"
       id="path456" /><path
       style="fill:#ff6650"
       d="m 43.161,369.792 c 10.182,22.199 29.787,41.679 67.031,44.007 51.58,3.224 80.754,-17.83 95.862,-44.455 -49.476,6.359 -129.769,13.767 -162.893,0.448 z"
       id="path458" /><path
       style="fill:#ffd161"
       d="m 419.432,322.09 c -25.082,28.8 -87.181,14.021 -127.224,0.315 -0.872,-12.761 0.338,-24.434 2.813,-33.018 10.663,-36.967 97.395,-36.256 97.395,-36.256 93.841,-4.266 86.022,46.921 86.022,46.921 0,0 0.39,3.04 0.627,8.056 -19.923,-5.803 -42.579,-5.596 -59.633,13.982 z"
       id="path460" /><path
       style="fill:#ffb561"
       d="m 419.432,322.09 c 17.052,-19.578 39.71,-19.785 59.634,-13.983 0.603,12.787 0.18,38.673 -10.375,61.685 -33.124,13.318 -113.416,5.911 -162.893,-0.449 -8.508,-14.996 -12.55,-31.734 -13.589,-46.938 40.042,13.708 102.141,28.485 127.223,-0.315 z"
       id="path462" /><path
       style="fill:#ff6650"
       d="m 468.691,369.792 c -10.181,22.199 -29.787,41.679 -67.031,44.007 -51.58,3.224 -80.754,-17.83 -95.862,-44.455 49.477,6.359 129.769,13.767 162.893,0.448 z"
       id="path464" /></g></g>
</svg>
